# xmcd
#
# Track frame offsets:
# 150
# 16840
# 32140
# 46830
# 63525
# 78450
# 90900
# 110250
# 124275
# 138975
# 153600
# 166050
# 182280
# 198900
#
# Disc length: 2864 seconds
#
#
# Revision: 0
# Processed by: cddbd v1.5.2PL0 Copyright (c) Steve Scherf et al.
# Submitted via: FreeRIP 2.951 
#
DISCID=a70b2e0e
DTITLE=Tino Gomes - FORRÓ DE CABO A RABO - AO VIVO
DYEAR=1900
DGENRE=Country
TTITLE0=Pout-pourri de xote - Pisa na fulô/sala de reboco/xote das meninas/cabelo loiro/
TTITLE1=Eo só quero um xodó
TTITLE2=As pedras cantam ou as pedras que cantam
TTITLE3=Isso aqui tá bom demais
TTITLE4=Forró de cabo a rabo
TTITLE5=Tropicana
TTITLE6=Pipoca
TTITLE7=Que nem giló
TTITLE8=Ai que saúdade de você
TTITLE9=Leonardo dá Vinte
TTITLE10=Nós num vive sem muié
TTITLE11=Retrato de um forró
TTITLE12=Festa do interior
TTITLE13=Vem morena
EXTD=
EXTT0=
EXTT1=
EXTT2=
EXTT3=
EXTT4=
EXTT5=
EXTT6=
EXTT7=
EXTT8=
EXTT9=
EXTT10=
EXTT11=
EXTT12=
EXTT13=
PLAYORDER=
